<svg width="262" height="47" viewBox="0 0 262 47" fill="none" xmlns="http://www.w3.org/2000/svg">
<path d="M6.72338 4.888L3.45938 4.264V2.632C3.90738 2.44 4.51538 2.248 5.28338 2.056C6.05138 1.864 6.88338 1.688 7.77938 1.528C8.67538 1.336 9.58738 1.192 10.5154 1.096C11.4754 0.967999 12.3554 0.903998 13.1554 0.903998L14.1154 1.432L7.82738 33.688H11.2354V35.32C10.9154 35.576 10.4834 35.832 9.93938 36.088C9.39538 36.344 8.78738 36.568 8.11538 36.76C7.47538 36.952 6.80338 37.112 6.09938 37.24C5.39538 37.368 4.72338 37.432 4.08338 37.432C2.99538 37.432 2.19538 37.208 1.68338 36.76C1.20338 36.28 0.963379 35.768 0.963379 35.224C0.963379 34.584 1.01138 33.96 1.10738 33.352C1.20338 32.744 1.33138 32.072 1.49138 31.336L6.72338 4.888ZM34.4111 31.768C34.0591 32.408 33.5471 33.08 32.8751 33.784C32.2031 34.456 31.4191 35.08 30.5231 35.656C29.6271 36.2 28.6351 36.648 27.5471 37C26.4591 37.384 25.3231 37.576 24.1391 37.576C21.2911 37.576 19.0671 36.808 17.4671 35.272C15.8991 33.704 15.1151 31.496 15.1151 28.648C15.1151 26.44 15.4671 24.36 16.1711 22.408C16.8751 20.456 17.8511 18.744 19.0991 17.272C20.3791 15.768 21.8831 14.584 23.6111 13.72C25.3711 12.856 27.2911 12.424 29.3711 12.424C31.2911 12.424 32.8751 12.872 34.1231 13.768C35.3711 14.632 35.9951 15.832 35.9951 17.368C35.9951 19.544 34.9071 21.336 32.7311 22.744C30.5871 24.152 27.0991 25.032 22.2671 25.384C22.1711 25.832 22.0911 26.296 22.0271 26.776C21.9951 27.224 21.9791 27.656 21.9791 28.072C21.9791 29.896 22.4431 31.304 23.3711 32.296C24.2991 33.256 25.4831 33.736 26.9231 33.736C27.5311 33.736 28.1391 33.64 28.7471 33.448C29.3551 33.256 29.9311 33 30.4751 32.68C31.0511 32.36 31.5631 32.024 32.0111 31.672C32.4911 31.288 32.9071 30.92 33.2591 30.568L34.4111 31.768ZM28.2671 15.16C27.1791 15.16 26.1231 15.752 25.0991 16.936C24.1071 18.12 23.2751 20.12 22.6031 22.936C24.9711 22.872 26.8751 22.344 28.3151 21.352C29.7871 20.36 30.5231 19.064 30.5231 17.464C30.5231 16.824 30.3471 16.28 29.9951 15.832C29.6751 15.384 29.0991 15.16 28.2671 15.16ZM46.8758 33.736C47.4838 33.736 48.1078 33.464 48.7478 32.92C49.4198 32.376 50.0438 31.704 50.6198 30.904C51.2278 30.072 51.7718 29.176 52.2518 28.216C52.7638 27.224 53.1958 26.312 53.5478 25.48L55.3238 15.976C54.9398 15.72 54.5718 15.544 54.2198 15.448C53.8998 15.32 53.4678 15.256 52.9238 15.256C51.6438 15.256 50.4918 15.688 49.4678 16.552C48.4438 17.384 47.5798 18.488 46.8758 19.864C46.1718 21.208 45.6278 22.728 45.2438 24.424C44.8918 26.12 44.7158 27.816 44.7158 29.512C44.7158 30.984 44.8918 32.056 45.2438 32.728C45.5958 33.4 46.1398 33.736 46.8758 33.736ZM52.8278 29.368C52.4118 30.392 51.8838 31.4 51.2438 32.392C50.6358 33.352 49.9318 34.216 49.1318 34.984C48.3318 35.752 47.4518 36.376 46.4918 36.856C45.5318 37.336 44.4918 37.576 43.3718 37.576C41.7078 37.576 40.3798 36.968 39.3878 35.752C38.3958 34.536 37.8998 32.728 37.8998 30.328C37.8998 27.832 38.2358 25.512 38.9078 23.368C39.6118 21.192 40.5878 19.304 41.8358 17.704C43.1158 16.072 44.6518 14.808 46.4438 13.912C48.2358 12.984 50.2358 12.52 52.4438 12.52C53.2758 12.52 53.9798 12.616 54.5558 12.808C55.1638 13 55.8038 13.24 56.4758 13.528C57.3078 13.208 58.2038 12.968 59.1638 12.808C60.1238 12.648 61.2758 12.568 62.6198 12.568L58.5878 33.688H61.9478V35.32C61.6278 35.576 61.1958 35.832 60.6518 36.088C60.1398 36.344 59.5638 36.568 58.9238 36.76C58.3158 36.952 57.6758 37.112 57.0038 37.24C56.3638 37.368 55.7558 37.432 55.1798 37.432C54.0598 37.432 53.2598 37.192 52.7798 36.712C52.2998 36.232 52.0598 35.736 52.0598 35.224C52.0598 34.648 52.1398 33.896 52.2998 32.968C52.4598 32.008 52.6998 30.808 53.0198 29.368H52.8278ZM78.7706 17.56C78.1626 17.816 77.4746 18.392 76.7066 19.288C75.9706 20.184 75.3466 21.32 74.8346 22.696L71.7626 37H65.0426L69.3146 16.408L66.5786 15.784V14.152C67.1226 13.896 67.7466 13.672 68.4506 13.48C69.1866 13.256 69.9546 13.08 70.7546 12.952C71.5866 12.792 72.4346 12.68 73.2986 12.616C74.1626 12.52 74.9946 12.456 75.7946 12.424L76.7546 13L75.5066 18.952H75.6986C76.6586 17.096 77.7626 15.544 79.0106 14.296C80.2586 13.048 81.7146 12.424 83.3786 12.424C83.8266 12.424 84.2746 12.472 84.7226 12.568C85.1706 12.632 85.5866 12.776 85.9706 13C86.0346 13.672 85.9706 14.408 85.7786 15.208C85.6186 15.976 85.3946 16.712 85.1066 17.416C84.8186 18.12 84.4826 18.744 84.0986 19.288C83.7146 19.832 83.3466 20.2 82.9946 20.392L78.7706 17.56ZM103.086 23.32C103.31 22.328 103.502 21.448 103.662 20.68C103.854 19.912 103.95 19.112 103.95 18.28C103.95 17.736 103.822 17.272 103.566 16.888C103.342 16.472 102.926 16.264 102.318 16.264C101.71 16.264 101.07 16.504 100.398 16.984C99.758 17.432 99.118 18.008 98.478 18.712C97.87 19.384 97.294 20.136 96.75 20.968C96.238 21.8 95.822 22.568 95.502 23.272L92.622 37H85.998L90.126 16.408L87.294 15.784L87.39 14.152C87.838 13.928 88.414 13.72 89.118 13.528C89.822 13.304 90.59 13.112 91.422 12.952C92.254 12.792 93.102 12.664 93.966 12.568C94.862 12.472 95.71 12.424 96.51 12.424L97.47 13L95.982 20.008H96.222C96.798 18.952 97.47 17.96 98.238 17.032C99.006 16.104 99.822 15.304 100.686 14.632C101.55 13.96 102.462 13.432 103.422 13.048C104.382 12.632 105.358 12.424 106.35 12.424C107.694 12.424 108.75 12.856 109.518 13.72C110.286 14.584 110.67 15.736 110.67 17.176C110.67 17.912 110.59 18.76 110.43 19.72C110.27 20.648 110.078 21.576 109.854 22.504L107.214 33.688H110.67V35.32C110.35 35.576 109.918 35.832 109.374 36.088C108.862 36.344 108.286 36.568 107.646 36.76C107.038 36.952 106.398 37.112 105.726 37.24C105.054 37.368 104.414 37.432 103.806 37.432C102.718 37.432 101.918 37.224 101.406 36.808C100.926 36.392 100.686 35.912 100.686 35.368C100.686 34.696 100.766 33.976 100.926 33.208C101.086 32.44 101.246 31.704 101.406 31L103.086 23.32Z" fill="#20B486"/>
<path d="M119.689 33.016C120.009 33.336 120.585 33.656 121.417 33.976C122.249 34.296 123.129 34.456 124.057 34.456C125.049 34.456 125.977 34.376 126.841 34.216C127.705 34.024 128.441 33.736 129.049 33.352C129.689 32.968 130.185 32.472 130.537 31.864C130.889 31.224 131.065 30.456 131.065 29.56C131.065 28.408 130.761 27.432 130.153 26.632C129.545 25.8 128.793 25.048 127.897 24.376C127.001 23.704 126.009 23.048 124.921 22.408C123.865 21.736 122.889 20.984 121.993 20.152C121.097 19.32 120.345 18.344 119.737 17.224C119.129 16.104 118.825 14.728 118.825 13.096C118.825 11.4 119.161 9.912 119.833 8.632C120.505 7.352 121.433 6.28 122.617 5.416C123.801 4.552 125.209 3.912 126.841 3.496C128.473 3.048 130.265 2.824 132.217 2.824C134.169 2.824 135.945 2.968 137.545 3.256C139.177 3.512 140.601 3.928 141.817 4.504C141.657 5.144 141.449 5.88 141.193 6.712C140.937 7.544 140.649 8.376 140.329 9.208C140.041 10.008 139.737 10.776 139.417 11.512C139.129 12.216 138.873 12.808 138.649 13.288H136.681L135.865 6.712C135.417 6.456 134.809 6.264 134.041 6.136C133.305 6.008 132.537 5.944 131.737 5.944C130.905 5.944 130.121 6.04 129.385 6.232C128.681 6.392 128.057 6.664 127.513 7.048C127.001 7.4 126.585 7.864 126.265 8.44C125.945 9.016 125.785 9.704 125.785 10.504C125.785 11.624 126.089 12.6 126.697 13.432C127.337 14.264 128.105 15.032 129.001 15.736C129.929 16.408 130.937 17.096 132.025 17.8C133.113 18.472 134.105 19.24 135.001 20.104C135.929 20.936 136.697 21.912 137.305 23.032C137.945 24.152 138.265 25.496 138.265 27.064C138.265 30.456 137.001 33.064 134.473 34.888C131.977 36.68 128.393 37.576 123.721 37.576C122.697 37.576 121.657 37.512 120.601 37.384C119.577 37.256 118.601 37.08 117.673 36.856C116.745 36.632 115.929 36.392 115.225 36.136C114.521 35.88 114.009 35.608 113.689 35.32C113.881 34.552 114.121 33.752 114.409 32.92C114.697 32.056 115.001 31.208 115.321 30.376C115.641 29.512 115.961 28.712 116.281 27.976C116.633 27.208 116.953 26.536 117.241 25.96H119.209L119.689 33.016ZM146.217 43.384C146.761 43.48 147.321 43.656 147.897 43.912C148.505 44.2 149.017 44.488 149.433 44.776V46.6H139.545L138.921 45.976L145.257 16.456L142.473 15.784V14.152C142.985 13.928 143.641 13.72 144.441 13.528C145.241 13.304 146.073 13.112 146.937 12.952C147.801 12.792 148.649 12.664 149.481 12.568C150.313 12.472 151.049 12.424 151.689 12.424L152.649 13L151.065 19.624H151.257C151.769 18.632 152.345 17.704 152.985 16.84C153.657 15.944 154.361 15.176 155.097 14.536C155.865 13.864 156.681 13.352 157.545 13C158.441 12.616 159.385 12.424 160.377 12.424C162.009 12.424 163.353 13.064 164.409 14.344C165.497 15.624 166.041 17.416 166.041 19.72C166.041 22.312 165.673 24.712 164.937 26.92C164.201 29.096 163.193 30.984 161.913 32.584C160.665 34.152 159.161 35.384 157.401 36.28C155.673 37.144 153.801 37.576 151.785 37.576C150.857 37.576 150.089 37.496 149.481 37.336C148.905 37.208 148.297 36.968 147.657 36.616L146.217 43.384ZM156.681 16.264C156.009 16.264 155.353 16.52 154.713 17.032C154.105 17.512 153.529 18.12 152.985 18.856C152.441 19.592 151.945 20.392 151.497 21.256C151.049 22.12 150.681 22.904 150.393 23.608L148.281 34.024C148.697 34.312 149.097 34.52 149.481 34.648C149.897 34.776 150.489 34.84 151.257 34.84C152.345 34.84 153.369 34.408 154.329 33.544C155.289 32.68 156.121 31.56 156.825 30.184C157.561 28.808 158.121 27.256 158.505 25.528C158.921 23.8 159.129 22.088 159.129 20.392C159.129 19.048 158.921 18.024 158.505 17.32C158.089 16.616 157.481 16.264 156.681 16.264ZM171.621 4.264V2.728C172.101 2.536 172.709 2.344 173.445 2.152C174.213 1.928 175.029 1.736 175.893 1.576C176.789 1.384 177.701 1.224 178.629 1.096C179.557 0.967999 180.437 0.903998 181.269 0.903998L182.277 1.336L178.245 20.008H178.485C179.093 18.984 179.765 18.008 180.501 17.08C181.269 16.152 182.069 15.352 182.901 14.68C183.733 13.976 184.613 13.432 185.541 13.048C186.469 12.632 187.413 12.424 188.373 12.424C189.845 12.424 190.981 12.856 191.781 13.72C192.581 14.552 192.981 15.592 192.981 16.84C192.981 17.704 192.901 18.632 192.741 19.624C192.581 20.616 192.389 21.576 192.165 22.504L189.429 33.688H192.981V35.32C192.341 35.832 191.397 36.312 190.149 36.76C188.933 37.208 187.541 37.432 185.973 37.432C184.917 37.432 184.149 37.224 183.669 36.808C183.189 36.36 182.949 35.832 182.949 35.224C182.949 34.648 183.013 34.056 183.141 33.448C183.301 32.84 183.461 32.136 183.621 31.336L185.397 23.32C185.621 22.328 185.813 21.432 185.973 20.632C186.165 19.8 186.261 19.016 186.261 18.28C186.261 17.704 186.133 17.224 185.877 16.84C185.653 16.456 185.301 16.264 184.821 16.264C184.085 16.264 183.349 16.536 182.613 17.08C181.877 17.592 181.189 18.216 180.549 18.952C179.909 19.688 179.333 20.456 178.821 21.256C178.341 22.056 177.989 22.728 177.765 23.272L174.933 37H168.309L174.789 4.888L171.621 4.264ZM215.88 31.768C215.528 32.408 215.016 33.08 214.344 33.784C213.672 34.456 212.888 35.08 211.992 35.656C211.096 36.2 210.104 36.648 209.016 37C207.928 37.384 206.792 37.576 205.608 37.576C202.76 37.576 200.536 36.808 198.936 35.272C197.368 33.704 196.584 31.496 196.584 28.648C196.584 26.44 196.936 24.36 197.64 22.408C198.344 20.456 199.32 18.744 200.568 17.272C201.848 15.768 203.352 14.584 205.08 13.72C206.84 12.856 208.76 12.424 210.84 12.424C212.76 12.424 214.344 12.872 215.592 13.768C216.84 14.632 217.464 15.832 217.464 17.368C217.464 19.544 216.376 21.336 214.2 22.744C212.056 24.152 208.568 25.032 203.736 25.384C203.64 25.832 203.56 26.296 203.496 26.776C203.464 27.224 203.448 27.656 203.448 28.072C203.448 29.896 203.912 31.304 204.84 32.296C205.768 33.256 206.952 33.736 208.392 33.736C209 33.736 209.608 33.64 210.216 33.448C210.824 33.256 211.4 33 211.944 32.68C212.52 32.36 213.032 32.024 213.48 31.672C213.96 31.288 214.376 30.92 214.728 30.568L215.88 31.768ZM209.736 15.16C208.648 15.16 207.592 15.752 206.568 16.936C205.576 18.12 204.744 20.12 204.072 22.936C206.44 22.872 208.344 22.344 209.784 21.352C211.256 20.36 211.992 19.064 211.992 17.464C211.992 16.824 211.816 16.28 211.464 15.832C211.144 15.384 210.568 15.16 209.736 15.16ZM233.097 17.56C232.489 17.816 231.801 18.392 231.033 19.288C230.297 20.184 229.673 21.32 229.161 22.696L226.089 37H219.369L223.641 16.408L220.905 15.784V14.152C221.449 13.896 222.073 13.672 222.777 13.48C223.513 13.256 224.281 13.08 225.081 12.952C225.913 12.792 226.761 12.68 227.625 12.616C228.489 12.52 229.321 12.456 230.121 12.424L231.081 13L229.833 18.952H230.025C230.985 17.096 232.089 15.544 233.337 14.296C234.585 13.048 236.041 12.424 237.705 12.424C238.153 12.424 238.601 12.472 239.049 12.568C239.497 12.632 239.913 12.776 240.297 13C240.361 13.672 240.297 14.408 240.105 15.208C239.945 15.976 239.721 16.712 239.433 17.416C239.145 18.12 238.809 18.744 238.425 19.288C238.041 19.832 237.673 20.2 237.321 20.392L233.097 17.56ZM259.572 31.768C259.22 32.408 258.708 33.08 258.036 33.784C257.364 34.456 256.58 35.08 255.684 35.656C254.788 36.2 253.796 36.648 252.708 37C251.62 37.384 250.484 37.576 249.3 37.576C246.452 37.576 244.228 36.808 242.628 35.272C241.06 33.704 240.276 31.496 240.276 28.648C240.276 26.44 240.628 24.36 241.332 22.408C242.036 20.456 243.012 18.744 244.26 17.272C245.54 15.768 247.044 14.584 248.772 13.72C250.532 12.856 252.452 12.424 254.532 12.424C256.452 12.424 258.036 12.872 259.284 13.768C260.532 14.632 261.156 15.832 261.156 17.368C261.156 19.544 260.068 21.336 257.892 22.744C255.748 24.152 252.26 25.032 247.428 25.384C247.332 25.832 247.252 26.296 247.188 26.776C247.156 27.224 247.14 27.656 247.14 28.072C247.14 29.896 247.604 31.304 248.532 32.296C249.46 33.256 250.644 33.736 252.084 33.736C252.692 33.736 253.3 33.64 253.908 33.448C254.516 33.256 255.092 33 255.636 32.68C256.212 32.36 256.724 32.024 257.172 31.672C257.652 31.288 258.068 30.92 258.42 30.568L259.572 31.768ZM253.428 15.16C252.34 15.16 251.284 15.752 250.26 16.936C249.268 18.12 248.436 20.12 247.764 22.936C250.132 22.872 252.036 22.344 253.476 21.352C254.948 20.36 255.684 19.064 255.684 17.464C255.684 16.824 255.508 16.28 255.156 15.832C254.836 15.384 254.26 15.16 253.428 15.16Z" fill="#FFC27A"/>
</svg>
